<svg width="240" height="240" viewBox="0 0 240 240" fill="none" xmlns="http://www.w3.org/2000/svg">
<rect width="240" height="240" rx="100" fill="#FEF2E6"/>
<path fill-rule="evenodd" clip-rule="evenodd" d="M151.473 61.7884C161.383 78.9542 187.398 135.347 165.802 152.996L163.349 155.043C162.545 155.685 161.913 156.493 161.517 157.386C161.121 158.28 160.974 159.227 161.092 160.131C161.659 166.515 161.748 172.981 161.36 179.485C161.261 181.106 160.479 182.703 159.185 183.931C157.891 185.159 156.189 185.918 154.447 186.044C153.262 186.099 152.116 185.878 151.115 185.4C145.225 182.556 139.639 179.258 134.41 175.536C133.679 174.993 132.785 174.653 131.816 174.55C130.846 174.447 129.834 174.583 128.876 174.946L125.759 176.115C99.8321 185.903 64.4693 134.908 54.0912 118.012C37.8606 91.3386 50.8047 73.5478 82.8238 55.0616C114.843 36.5754 136.722 34.2608 151.473 61.7884Z" fill="#FFA800"/>
</svg>
